<?xml version="1.0" standalone="no"?>
<!DOCTYPE svg PUBLIC "-//W3C//DTD SVG 20010904//EN"
 "http://www.w3.org/TR/2001/REC-SVG-20010904/DTD/svg10.dtd">
<svg version="1.0" xmlns="http://www.w3.org/2000/svg"
 width="250.000000pt" height="250.000000pt" viewBox="0 0 250.000000 250.000000"
 preserveAspectRatio="xMidYMid meet">
<metadata>
Created by potrace 1.11, written by Peter Selinger 2001-2013
</metadata>
<g transform="translate(0.000000,250.000000) scale(0.100000,-0.100000)"
fill="#000000" stroke="none">
<path d="M1094 1986 c-148 -34 -266 -99 -373 -207 -158 -157 -228 -340 -218
-564 15 -326 220 -588 537 -687 63 -19 96 -23 210 -23 114 0 147 4 210 23 253
80 433 259 512 512 19 63 23 96 23 210 0 114 -4 147 -23 210 -79 250 -258 431
-507 510 -90 28 -280 36 -371 16z"/>
</g>
</svg>
